HIERARCHY
ROOT Hips
{
	OFFSET 0.00000 0.00000 0.00000
	CHANNELS 6 Xposition Yposition Zposition Zrotation Yrotation Xrotation 
	JOINT LHipJoint
	{
		OFFSET 0 0 0
		CHANNELS 3 Zrotation Yrotation Xrotation
		JOINT LeftUpLeg
		{
			OFFSET 1.41496 -1.84582 0.78394
			CHANNELS 3 Zrotation Yrotation Xrotation
			JOINT LeftLeg
			{
				OFFSET 2.58040 -7.08960 0.00000
				CHANNELS 3 Zrotation Yrotation Xrotation
				JOINT LeftFoot
				{
					OFFSET 2.64719 -7.27309 0.00000
					CHANNELS 3 Zrotation Yrotation Xrotation
					JOINT LeftToeBase
					{
						OFFSET 0.20718 -0.56921 2.20259
						CHANNELS 3 Zrotation Yrotation Xrotation
						End Site
						{
							OFFSET 0.00000 -0.00000 1.14243
						}
					}
				}
			}
		}
	}
	JOINT RHipJoint
	{
		OFFSET 0 0 0
		CHANNELS 3 Zrotation Yrotation Xrotation
		JOINT RightUpLeg
		{
			OFFSET -1.40551 -1.84582 0.78394
			CHANNELS 3 Zrotation Yrotation Xrotation
			JOINT RightLeg
			{
				OFFSET -2.56572 -7.04926 0.00000
				CHANNELS 3 Zrotation Yrotation Xrotation
				JOINT RightFoot
				{
					OFFSET -2.57974 -7.08778 0.00000
					CHANNELS 3 Zrotation Yrotation Xrotation
					JOINT RightToeBase
					{
						OFFSET -0.26704 -0.73369 2.20815
						CHANNELS 3 Zrotation Yrotation Xrotation
						End Site
						{
							OFFSET -0.00000 -0.00000 1.16246
						}
					}
				}
			}
		}
	}
	JOINT LowerBack
	{
		OFFSET 0 0 0
		CHANNELS 3 Zrotation Yrotation Xrotation
		JOINT Spine
		{
			OFFSET -0.04690 2.05196 -0.07017
			CHANNELS 3 Zrotation Yrotation Xrotation
			JOINT Spine1
			{
				OFFSET 0.04085 2.05260 0.00800
				CHANNELS 3 Zrotation Yrotation Xrotation
				JOINT Neck
				{
					OFFSET 0 0 0
					CHANNELS 3 Zrotation Yrotation Xrotation
					JOINT Neck1
					{
						OFFSET -0.03582 1.80995 0.19301
						CHANNELS 3 Zrotation Yrotation Xrotation
						JOINT Head
						{
							OFFSET 0.00952 1.80195 -0.36389
							CHANNELS 3 Zrotation Yrotation Xrotation
							End Site
							{
								OFFSET 0.00392 1.85062 -0.14494
							}
						}
					}
				}
				JOINT LeftShoulder
				{
					OFFSET 0 0 0
					CHANNELS 3 Zrotation Yrotation Xrotation
					JOINT LeftArm
					{
						OFFSET 3.55224 1.39726 -0.13667
						CHANNELS 3 Zrotation Yrotation Xrotation
						JOINT LeftForeArm
						{
							OFFSET 5.14507 -0.00000 -0.00000
							CHANNELS 3 Zrotation Yrotation Xrotation
							JOINT LeftHand
							{
								OFFSET 3.50646 -0.00000 0.00000
								CHANNELS 3 Zrotation Yrotation Xrotation
								JOINT LeftFingerBase
								{
									OFFSET 0 0 0
									CHANNELS 3 Zrotation Yrotation Xrotation
									JOINT LeftHandIndex1
									{
										OFFSET 0.62997 -0.00000 0.00000
										CHANNELS 3 Zrotation Yrotation Xrotation
										End Site
										{
											OFFSET 0.50790 -0.00000 0.00000
										}
									}
								}
								JOINT LThumb
								{
									OFFSET 0 0 0
									CHANNELS 3 Zrotation Yrotation Xrotation
									End Site
									{
										OFFSET 0.51565 -0.00000 0.51565
									}
								}
							}
						}
					}
				}
				JOINT RightShoulder
				{
					OFFSET 0 0 0
					CHANNELS 3 Zrotation Yrotation Xrotation
					JOINT RightArm
					{
						OFFSET -3.06467 1.61290 -0.28813
						CHANNELS 3 Zrotation Yrotation Xrotation
						JOINT RightForeArm
						{
							OFFSET -5.23200 -0.00000 -0.00000
							CHANNELS 3 Zrotation Yrotation Xrotation
							JOINT RightHand
							{
								OFFSET -3.65641 -0.00000 0.00000
								CHANNELS 3 Zrotation Yrotation Xrotation
								JOINT RightFingerBase
								{
									OFFSET 0 0 0
									CHANNELS 3 Zrotation Yrotation Xrotation
									JOINT RightHandIndex1
									{
										OFFSET -0.65681 -0.00000 0.00000
										CHANNELS 3 Zrotation Yrotation Xrotation
										End Site
										{
											OFFSET -0.52953 -0.00000 0.00000
										}
									}
								}
								JOINT RThumb
								{
									OFFSET 0 0 0
									CHANNELS 3 Zrotation Yrotation Xrotation
									End Site
									{
										OFFSET -0.53762 -0.00000 0.53762
									}
								}
							}
						}
					}
				}
			}
		}
	}
}
MOTION
Frames: 15
Frame Time: .0083333
-10.8737 16.5534 -42.8553 0 0 0 0 0 0 -21 0 0 0 0 0 0 0 0 0 0 0 0 0 0 21 0 0 0 0 0 0 0 0 0 0 0 0 0 0 0 0 0 0 0 0 0 0 -16 0 0 21 0 0 11 0 0 0 -8 0 0 0 0 0 0 0 0 0 0 0 0 0 0 0 0 0 0 0 0 8 0 0 0 0 0 0 0 0 0 0 0 0 0 0 0 0 0
-10.8737 16.5534 -42.8553 -9.4040 -4.9915 25.8139 0.0000 0.0000 0.0000 -10.5798 -12.6765 -64.1994 13.0583 18.8031 69.3065 0.8416 -14.1356 -17.8829 0.7017 5.3545 14.9224 0.0000 0.0000 0.0000 23.0459 -0.6658 -7.1245 -8.2468 -16.2978 53.4467 -0.4566 -12.5613 13.9438 -0.5758 -4.8594 13.5080 1.0245 2.1033 16.9620 0.9193 3.0384 0.9321 -0.3172 1.4305 -8.5123 0.0931 -0.8441 -18.8250 2.4943 -1.2220 -3.3394 0.7062 -0.5197 2.1718 0.0000 -0.0000 0.0000 -82.5926 25.4193 42.9923 68.9307 -58.2544 -41.8604 -0.0000 0.0000 -22.6502 23.2262 -8.3274 -3.5565 -7.1250 0.0000 -0.0000 -2.6300 20.9339 1.5183 0.0000 -0.0000 0.0000 86.7474 -5.7276 43.4383 -84.8037 59.8977 -55.5014 0.0000 -0.0000 -10.2782 -24.9468 3.8486 -1.7883 7.1250 -0.0000 -0.0000 1.2724 -25.7363 0.5938
-10.9024 16.5418 -42.3963 -7.8896 -4.7965 25.5290 0.0000 0.0000 0.0000 -13.3259 -12.8059 -61.8500 13.0515 18.8007 69.2853 1.1314 -13.3493 -19.8737 0.7283 5.4526 15.2041 0.0000 0.0000 0.0000 21.3168 -1.0054 -10.5509 -9.7443 -17.2636 58.6304 -0.2079 -12.2392 11.1757 -0.7799 -5.6383 15.7386 -0.4310 1.8966 17.4044 0.5968 2.4602 0.8287 0.2818 1.2020 -8.9232 0.1699 -0.7411 -18.6993 2.5475 -1.0991 -3.4658 0.7192 -0.4590 2.1039 -0.0000 -0.0000 0.0000 -83.3574 21.9538 43.1114 64.7353 -57.4451 -38.3078 -0.0000 0.0000 -22.1744 24.1759 -8.1712 -3.6508 -7.1250 0.0000 -0.0000 -1.9387 21.0374 1.1142 -0.0000 -0.0000 0.0000 87.9595 -6.8897 41.1272 -74.8943 59.1200 -46.9567 0.0000 -0.0000 -10.9472 -25.7075 4.1481 -1.9945 7.1250 -0.0000 -0.0000 0.7027 -25.3777 0.3338
-10.9240 16.5333 -41.9463 -6.0750 -4.2768 25.3327 0.0000 0.0000 0.0000 -15.8756 -13.5116 -59.4725 12.9998 18.7821 69.1249 1.2960 -13.2292 -21.0422 0.8281 5.8057 16.2217 0.0000 0.0000 0.0000 19.3267 -1.7709 -14.2500 -11.1991 -18.0311 63.4263 -0.0176 -12.0184 8.6734 -0.8363 -5.8336 16.3025 -1.8454 1.5401 17.7055 0.2016 1.6704 0.7671 0.8463 0.8762 -9.1774 0.2816 -0.6408 -18.5967 2.6526 -0.9864 -3.6756 0.7418 -0.4027 2.0118 0.0000 -0.0000 0.0000 -84.0369 18.3263 43.2138 60.6458 -56.4796 -34.8789 -0.0000 0.0000 -21.2287 24.6984 -8.0078 -3.6659 -7.1250 0.0000 -0.0000 -1.5550 21.1790 0.8885 0.0000 -0.0000 0.0000 89.1058 -7.7988 38.5080 -65.5229 57.6105 -38.9722 0.0000 -0.0000 -11.7852 -26.8195 3.6100 -1.8233 7.1250 -0.0000 -0.0000 -0.1496 -25.9360 -0.0691
-10.9435 16.5136 -41.4820 -4.5146 -3.6643 25.1198 0.0000 0.0000 0.0000 -17.8163 -14.2694 -56.8561 12.9485 18.7635 68.9654 1.4045 -13.8753 -21.9419 0.9583 6.2333 17.4629 0.0000 0.0000 0.0000 17.5682 -2.5857 -17.8378 -12.6108 -18.6371 67.9123 0.1714 -11.9061 5.6746 -0.9440 -6.1880 17.3308 -3.0106 1.1661 17.9550 -0.0796 0.9084 0.6801 1.3935 0.5608 -9.4029 0.1975 -0.5585 -18.4537 2.9376 -0.8622 -3.8216 0.8581 -0.3321 1.9383 -0.0000 0.0000 0.0000 -84.7683 14.7887 43.1480 56.6882 -55.3608 -31.6005 -0.0000 0.0000 -19.9890 24.7935 -8.4061 -3.8632 -7.1250 0.0000 -0.0000 -1.5009 20.7357 0.8726 -0.0000 0.0000 0.0000 89.9351 -8.9605 35.7331 -57.5624 55.6246 -32.3209 0.0000 -0.0000 -12.6367 -27.1351 3.5517 -1.8185 7.1250 -0.0000 -0.0000 -0.3903 -25.9901 -0.1798
-10.9518 16.5091 -41.0325 -3.8510 -3.2044 25.0134 0.0000 0.0000 0.0000 -18.3944 -14.6315 -54.6307 12.8994 18.7455 68.8128 1.4800 -15.3518 -22.7971 0.6713 5.2396 14.5931 0.0000 0.0000 0.0000 16.7063 -2.3904 -21.8545 -13.9589 -19.1015 72.0789 0.2787 -11.3266 2.7384 -0.9892 -6.3304 17.7460 -3.4758 1.0030 18.3574 -0.1408 0.5737 0.5208 1.6744 0.4290 -9.7929 -0.2054 -0.7237 -18.6695 3.5766 -1.0236 -3.6048 1.1288 -0.3814 2.0653 -0.0000 -0.0000 0.0000 -85.8095 11.9519 42.7126 55.9192 -55.1207 -30.9687 -0.0000 0.0000 -17.5318 25.1183 -8.6092 -4.0144 -7.1250 0.0000 -0.0000 -1.2751 20.4881 0.7483 -0.0000 -0.0000 0.0000 90.1697 -10.2643 33.2455 -51.7256 53.6682 -27.5583 0.0000 -0.0000 -14.7575 -28.8160 3.3113 -1.8200 7.1250 -0.0000 -0.0000 -1.6732 -26.2012 -0.7628
-10.9652 16.4739 -40.5872 -2.8982 -2.7287 24.9882 0.0000 0.0000 0.0000 -19.5983 -14.9690 -52.4546 12.8587 18.7306 68.6861 1.5715 -16.2459 -23.6137 0.6361 5.1028 14.2021 0.0000 0.0000 0.0000 15.4602 -2.6045 -25.7215 -15.2775 -19.4567 76.0711 0.3311 -10.8921 0.2559 -0.9935 -6.3435 17.7844 -4.1443 0.7723 18.5778 -0.2775 0.1026 0.3944 2.0298 0.2407 -10.0326 -0.4117 -0.7787 -18.7905 3.9140 -1.0658 -3.5599 1.2745 -0.3865 2.1100 0.0000 0.0000 0.0000 -86.7202 9.1117 42.5540 55.0598 -54.8429 -30.2648 -0.0000 0.0000 -15.8380 25.4213 -8.8346 -4.1750 -7.1250 0.0000 -0.0000 -1.0672 20.2162 0.6328 0.0000 0.0000 0.0000 90.5996 -11.5649 30.3481 -46.5072 51.4859 -23.4122 0.0000 -0.0000 -15.7222 -29.6218 3.2362 -1.8385 7.1250 -0.0000 -0.0000 -2.2878 -26.2571 -1.0404
-10.9758 16.4327 -40.1429 -2.1324 -2.2877 25.0333 0.0000 0.0000 0.0000 -20.5664 -15.1668 -50.3845 12.8186 18.7157 68.5610 1.6320 -17.3252 -24.2818 0.6099 4.9985 13.9044 0.0000 0.0000 0.0000 14.3555 -2.6592 -29.7066 -16.5170 -19.7066 79.7684 0.3356 -10.3342 -2.0609 -0.9230 -6.1207 17.1350 -4.6365 0.5690 18.7081 -0.3572 -0.2889 0.2600 2.3284 0.0846 -10.2288 -0.6338 -0.8551 -18.9715 4.1996 -1.1326 -3.4897 1.4053 -0.4045 2.1749 0.0000 -0.0000 0.0000 -87.7112 6.6364 42.4079 55.6280 -55.0277 -30.7300 -0.0000 0.0000 -14.3100 25.6074 -9.0912 -4.3307 -7.1250 0.0000 -0.0000 -0.9459 19.9183 0.5671 0.0000 -0.0000 0.0000 90.8248 -13.0462 27.4709 -42.5052 49.4860 -20.3238 0.0000 -0.0000 -16.4041 -30.3035 3.3425 -1.9516 7.1250 -0.0000 -0.0000 -2.7992 -26.1083 -1.2832
-10.9838 16.3877 -39.6962 -1.5237 -1.9182 25.1252 0.0000 0.0000 0.0000 -21.4026 -15.1554 -48.3805 12.7629 18.6949 68.3875 1.6651 -18.4833 -24.8195 0.5996 4.9571 13.7861 0.0000 0.0000 0.0000 13.3534 -2.5476 -33.7618 -17.6542 -19.8676 83.1269 0.2996 -9.6683 -4.1855 -0.7822 -5.6465 15.7620 -5.0026 0.3997 18.7517 -0.3880 -0.6008 0.1201 2.5881 -0.0381 -10.3840 -0.8450 -0.9349 -19.1968 4.3897 -1.2037 -3.4047 1.5028 -0.4275 2.2520 0.0000 0.0000 0.0000 -88.7570 4.5660 42.3780 57.8390 -55.7061 -32.5493 -0.0000 0.0000 -13.2932 25.6750 -9.3690 -4.4748 -7.1250 0.0000 -0.0000 -0.9113 19.6063 0.5527 0.0000 0.0000 0.0000 90.8572 -14.7736 24.7591 -39.6492 47.8607 -18.1787 0.0000 -0.0000 -16.6539 -30.8754 3.5954 -2.1473 7.1250 -0.0000 -0.0000 -3.2171 -25.7912 -1.4991
-10.9897 16.3415 -39.2454 -1.0217 -1.6435 25.2523 0.0000 0.0000 0.0000 -22.2029 -14.9074 -46.4068 12.6722 18.6606 68.1042 1.6732 -19.6186 -25.2257 0.6044 4.9764 13.8412 0.0000 0.0000 0.0000 12.3986 -2.2865 -37.8562 -18.6525 -19.9564 86.0574 0.2338 -8.9290 -6.0732 -0.5985 -4.9523 13.7727 -5.2984 0.2608 18.7005 -0.3851 -0.8490 -0.0189 2.8268 -0.1340 -10.4871 -1.0152 -0.9965 -19.4528 4.4541 -1.2548 -3.3239 1.5529 -0.4454 2.3307 -0.0000 -0.0000 0.0000 -89.8045 2.8786 42.5759 61.8817 -56.7909 -35.9112 -0.0000 0.0000 -13.0515 25.5780 -9.6239 -4.5751 -7.1250 0.0000 -0.0000 -0.9932 19.3338 0.6085 -0.0000 -0.0000 0.0000 90.7214 -16.7677 22.3373 -37.8506 46.7436 -16.8567 0.0000 -0.0000 -16.4957 -31.2741 4.0039 -2.4285 7.1250 -0.0000 -0.0000 -3.4914 -25.2971 -1.6676
-10.9932 16.2971 -38.7865 -0.5897 -1.4525 25.3941 0.0000 0.0000 0.0000 -23.0179 -14.4312 -44.3883 12.5246 18.6037 67.6422 1.6575 -20.6634 -25.4907 0.6221 5.0476 14.0443 0.0000 0.0000 0.0000 11.4681 -1.9215 -41.9245 -19.4844 -19.9936 88.4923 0.1488 -8.1552 -7.7421 -0.3987 -4.0540 11.2286 -5.5493 0.1357 18.5559 -0.3542 -1.0604 -0.1538 3.0593 -0.2153 -10.5337 -1.1319 -1.0188 -19.7228 4.3833 -1.2596 -3.2519 1.5518 -0.4460 2.4047 -0.0000 0.0000 0.0000 -90.7949 1.5071 43.0795 67.8271 -58.0583 -40.9229 -0.0000 0.0000 -13.6855 25.2851 -9.8337 -4.6125 -7.1250 0.0000 -0.0000 -1.2122 19.1290 0.7482 -0.0000 0.0000 0.0000 90.4309 -19.0512 20.3326 -37.0406 46.2154 -16.2693 0.0000 -0.0000 -16.0617 -31.4718 4.5910 -2.8050 7.1250 -0.0000 -0.0000 -3.5993 -24.6017 -1.7775
-10.9949 16.2579 -38.3172 -0.1991 -1.3499 25.5250 0.0000 0.0000 0.0000 -23.8682 -13.7478 -42.2498 12.2965 18.5132 66.9255 1.6191 -21.5710 -25.6044 0.6389 5.1138 14.2333 0.0000 0.0000 0.0000 10.5458 -1.4755 -45.9030 -20.1278 -19.9996 90.3736 0.0543 -7.3939 -9.2190 -0.2222 -3.0343 8.3741 -5.7953 0.0178 18.3524 -0.2986 -1.2547 -0.2951 3.3100 -0.2885 -10.5532 -1.1889 -0.9831 -19.9591 4.1807 -1.1949 -3.1907 1.5010 -0.4186 2.4641 -0.0000 -0.0000 0.0000 -91.6602 0.3871 43.9146 75.5911 -59.2008 -47.5550 -0.0000 0.0000 -15.0754 24.8098 -9.9649 -4.5736 -7.1250 0.0000 -0.0000 -1.5561 19.0273 0.9641 -0.0000 -0.0000 0.0000 89.9964 -21.6084 18.8211 -37.1192 46.2674 -16.3261 0.0000 -0.0000 -15.4757 -31.5131 5.1815 -3.1693 7.1250 -0.0000 -0.0000 -3.5875 -23.9099 -1.8291
-10.9940 16.2285 -37.8343 0.1614 -1.3185 25.6309 0.0000 0.0000 0.0000 -24.7370 -12.9126 -39.9460 11.9687 18.3774 65.8896 1.5526 -22.3263 -25.5258 0.6402 5.1188 14.2476 0.0000 0.0000 0.0000 9.6410 -0.9768 -49.7180 -20.5610 -19.9925 91.6405 -0.0414 -6.6900 -10.5016 -0.0937 -1.9738 5.4332 -6.0308 -0.1047 18.0954 -0.2244 -1.4465 -0.4372 3.5722 -0.3615 -10.5409 -1.1865 -0.8848 -20.1675 3.8717 -1.0563 -3.1277 1.4098 -0.3599 2.5150 0.0000 0.0000 0.0000 -92.3278 -0.5775 45.0655 84.8315 -59.8988 -55.5255 -0.0000 0.0000 -16.8791 24.2339 -10.0437 -4.4887 -7.1250 0.0000 -0.0000 -1.9684 18.9916 1.2214 0.0000 0.0000 0.0000 89.4344 -24.3856 17.8162 -37.9897 46.8327 -16.9581 0.0000 -0.0000 -15.0030 -31.4089 5.8710 -3.5740 7.1250 -0.0000 -0.0000 -3.4589 -23.1128 -1.8267
-10.9897 16.2139 -37.3347 0.4784 -1.3499 25.7009 0.0000 0.0000 0.0000 -25.5847 -11.9788 -37.4345 11.5281 18.1840 64.4849 1.4488 -22.9193 -25.1946 0.6187 5.0337 14.0046 0.0000 0.0000 0.0000 8.7838 -0.4390 -53.2890 -20.7671 -19.9859 92.2435 -0.1331 -6.0743 -11.6206 -0.0217 -0.9501 2.6115 -6.2336 -0.2355 17.7812 -0.1317 -1.6356 -0.5785 3.8328 -0.4358 -10.4929 -1.1380 -0.7266 -20.3333 3.4885 -0.8462 -3.0491 1.2914 -0.2698 2.5613 -0.0000 -0.0000 0.0000 -92.7508 -1.4622 46.4703 94.8873 -59.9096 -64.2312 -0.0000 0.0000 -18.6179 23.6088 -10.0599 -4.3659 -7.1250 0.0000 -0.0000 -2.4127 19.0276 1.4956 -0.0000 -0.0000 0.0000 88.7559 -27.3121 17.2700 -39.5394 47.7946 -18.0973 0.0000 -0.0000 -14.8157 -31.2061 6.5242 -3.9374 7.1250 -0.0000 -0.0000 -3.2602 -22.3679 -1.7770
-10.9814 16.2158 -36.8174 0.7304 -1.4293 25.7340 0.0000 0.0000 0.0000 -26.3581 -11.0233 -34.7025 10.9774 17.9240 62.7083 1.3004 -23.3332 -24.5506 0.5685 4.8290 13.4215 0.0000 0.0000 0.0000 8.0128 0.1351 -56.5598 -20.7410 -19.9868 92.1669 -0.2159 -5.5599 -12.5613 -0.0000 -0.0085 0.0233 -6.3698 -0.3776 17.4054 -0.0161 -1.8182 -0.7173 4.0753 -0.5116 -10.4063 -1.0610 -0.5179 -20.4569 3.0579 -0.5745 -2.9360 1.1576 -0.1519 2.6113 -0.0000 0.0000 0.0000 -92.9053 -2.2893 48.0587 104.9844 -59.1344 -72.9391 -0.0000 0.0000 -19.8283 23.0450 -10.0405 -4.2416 -7.1250 0.0000 -0.0000 -2.8124 19.0958 1.7396 -0.0000 0.0000 0.0000 87.9745 -30.3058 17.0990 -41.6552 49.0205 -19.6799 0.0000 -0.0000 -15.0125 -30.9384 7.0246 -4.1925 7.1250 -0.0000 -0.0000 -3.0264 -21.8089 -1.6878
